<svg width="47" height="47" viewBox="0 0 47 47" fill="none" xmlns="http://www.w3.org/2000/svg">
<path d="M32.7056 0.583252H14.2119C10.5983 0.587499 7.13392 2.02504 4.57893 4.58046C2.02394 7.13588 0.586983 10.6005 0.583344 14.2141L0.583344 32.7078C0.58759 36.3214 2.02513 39.7858 4.58055 42.3408C7.13597 44.8958 10.6006 46.3327 14.2142 46.3364H32.7079C36.3215 46.3321 39.7859 44.8946 42.3409 42.3392C44.8959 39.7837 46.3328 36.3192 46.3365 32.7055V14.2118C46.3322 10.5982 44.8947 7.13383 42.3393 4.57884C39.7838 2.02385 36.3192 0.586891 32.7056 0.583252ZM41.7348 32.7055C41.7348 33.8913 41.5013 35.0654 41.0475 36.1609C40.5937 37.2563 39.9287 38.2517 39.0902 39.0901C38.2518 39.9286 37.2564 40.5937 36.1609 41.0474C35.0655 41.5012 33.8914 41.7347 32.7056 41.7347H14.2119C11.8176 41.7341 9.52158 40.7826 7.82878 39.0893C6.13598 37.3961 5.18501 35.0998 5.18501 32.7055V14.2118C5.18562 11.8175 6.13717 9.52149 7.8304 7.82869C9.52363 6.13589 11.8199 5.18492 14.2142 5.18492H32.7079C35.1022 5.18553 37.3982 6.13708 39.091 7.83031C40.7838 9.52354 41.7348 11.8198 41.7348 14.2141V32.7055Z" fill="#FB3FB0"/>
<path d="M23.4588 11.6267C20.3225 11.6316 17.316 12.8798 15.0985 15.0977C12.881 17.3156 11.6334 20.3223 11.6292 23.4586C11.6328 26.5957 12.8805 29.6033 15.0985 31.8218C17.3166 34.0403 20.324 35.2885 23.4611 35.2927C26.5986 35.2891 29.6065 34.0411 31.8251 31.8226C34.0436 29.604 35.2916 26.5961 35.2952 23.4586C35.2904 20.3215 34.0415 17.3144 31.8226 15.0967C29.6037 12.8791 26.5959 11.632 23.4588 11.629V11.6267ZM23.4588 30.6911C21.5412 30.6911 19.7022 29.9293 18.3462 28.5734C16.9903 27.2175 16.2286 25.3784 16.2286 23.4609C16.2286 21.5433 16.9903 19.7043 18.3462 18.3483C19.7022 16.9924 21.5412 16.2307 23.4588 16.2307C25.3763 16.2307 27.2154 16.9924 28.5713 18.3483C29.9272 19.7043 30.689 21.5433 30.689 23.4609C30.689 25.3784 29.9272 27.2175 28.5713 28.5734C27.2154 29.9293 25.3763 30.6911 23.4588 30.6911Z" fill="#FB3FB0"/>
<path d="M35.3158 14.5509C36.8815 14.5509 38.1506 13.2818 38.1506 11.7161C38.1506 10.1505 36.8815 8.88135 35.3158 8.88135C33.7502 8.88135 32.481 10.1505 32.481 11.7161C32.481 13.2818 33.7502 14.5509 35.3158 14.5509Z" fill="#FB3FB0"/>
</svg>
