<svg width="16" height="19" viewBox="0 0 16 19" fill="none" xmlns="http://www.w3.org/2000/svg">
<path d="M12.8007 9.90229C12.8007 11.1494 11.9869 12.2174 10.8317 12.667L10.2166 11.2829C10.7942 11.0581 11.1992 10.5241 11.1992 9.89878C11.1992 9.27697 10.7942 8.74299 10.2166 8.51465L10.8317 7.13052C11.9869 7.58721 12.8007 8.65517 12.8007 9.90229ZM12.0619 15.4353L11.4468 14.0512C13.1833 13.3732 14.4023 11.7712 14.4023 9.90229C14.4023 8.02985 13.1833 6.43142 11.4468 5.75341L12.0619 4.36928C14.376 5.27213 16 7.40804 16 9.90229C16 12.3965 14.376 14.5325 12.0619 15.4353ZM0 13.6507V6.15741H3.19925L8.79887 0.908953V18.8956L3.19925 13.6507H0Z" fill="white"/>
</svg>
